              ***********************************************

                PublicHash - Largest Bittorrent Community
      
                          http://publichash.com/
    
              *********************************************** 
http://www.imdb.com/title/tt2122424/

The Maguire family is forced to take sudden refuge in a seemingly abandoned storm cellar from a deadly tornado

General
Complete name: Nailbiter 2013 WEBRip x264 AAC-OFFLiNE.mp4
Format: MPEG-4
Format profile: Base Media
Codec ID: isom
File size: 1.00 GiB
Duration: 1h 21mn
Overall bit rate mode: Variable
Overall bit rate: 1 760 Kbps
Encoded date: UTC 2013-05-29 01:50:36
Tagged date: UTC 2013-05-29 01:50:36

Video
ID: 1
Format: AVC
Format/Info: Advanced Video Codec
Format profile: High@L4.1
Format settings, CABAC: Yes
Format settings, ReFrames: 3 frames
Codec ID: avc1
Codec ID/Info: Advanced Video Coding
Duration: 1h 21mn
Bit rate mode: Variable
Bit rate: 1 414 Kbps
Maximum bit rate: 40.0 Mbps
Width: 720 pixels
Height: 304 pixels
Display aspect ratio: 2.35:1
Frame rate mode: Constant
Frame rate: 23.976 fps
Color space: YUV
Chroma subsampling: 4:2:0
Bit depth: 8 bits
Scan type: Progressive
Bits/(Pixel*Frame): 0.269
Stream size: 825 MiB (80%)
Writing library: x264 core 133 r2334 a3ac64b

Audio
ID: 2
Format: AAC
Format/Info: Advanced Audio Codec
Format profile: LC
Codec ID: 40
Duration: 1h 21mn
Bit rate mode: Variable
Bit rate: 343 Kbps
Maximum bit rate: 387 Kbps
Channel(s): 6 channels
Channel positions: Front: L C R, Side: L R, LFE
Sampling rate: 48.0 KHz
Compression mode: Lossy
Stream size: 200 MiB (19%)
Language: English
Encoded date: UTC 2013-05-28 22:15:11
Tagged date: UTC 2013-05-29 01:51:23

Gallery: 
http://imgsure.com/?g=678087

Subtitles: 
http://publichash.com/index.php?page=subtitles&id=1c35494fba8a6134af2fd3ec8ae81420f8f8f13a